<?xml version="1.0" encoding="UTF-8"?>
<svg id="Layer_2" data-name="Layer 2" xmlns="http://www.w3.org/2000/svg" viewBox="0 0 321.81 633.04">
  <defs>
    <style>
      .cls-1 {
        fill: #1a1818;
      }
    </style>
  </defs>
  <g id="Layer_1-2" data-name="Layer 1">
    <g id="FS_logo" data-name="FS logo">
      <path class="cls-1" d="m274.91,147.4l27.98-30.77L160.91,0,0,173.67c65.87,53.68,131.74,107.36,197.61,161.03,9.33-10.26,18.65-20.51,27.98-30.77-23.53-19.26-47.05-38.51-70.58-57.77,19.95-21.45,39.89-42.89,59.84-64.34l-32.21-26.46c-19.81,21.54-39.63,43.09-59.44,64.63-20.7-17.04-41.39-34.08-62.09-51.12,34.58-37.3,69.16-74.6,103.74-111.9l110.07,90.42Z"/>
      <path class="cls-1" d="m46.9,485.64l-27.98,30.77,141.98,116.64,160.91-173.67c-65.87-53.68-131.74-107.36-197.61-161.03-9.33,10.26-18.65,20.51-27.98,30.77,23.53,19.26,47.05,38.51,70.58,57.77-19.95,21.45-39.89,42.89-59.84,64.34l32.21,26.46c19.81-21.54,39.63-43.09,59.44-64.63,20.7,17.04,41.39,34.08,62.09,51.12-34.58,37.3-69.16,74.6-103.74,111.9l-110.07-90.42Z"/>
    </g>
  </g>
</svg>